<?xml version="1.0" encoding="UTF-8" standalone="no"?>
<svg
   width="144"
   height="144"
   viewBox="0 0 24 24"
   fill="none"
   data-reactroot=""
   version="1.1"
   id="svg14"
   sodipodi:docname="eventtech.svg"
   inkscape:version="1.1.1 (3bf5ae0d25, 2021-09-20)"
   xmlns:inkscape="http://www.inkscape.org/namespaces/inkscape"
   xmlns:sodipodi="http://sodipodi.sourceforge.net/DTD/sodipodi-0.dtd"
   xmlns="http://www.w3.org/2000/svg"
   xmlns:svg="http://www.w3.org/2000/svg">
  <defs
     id="defs18" />
  <sodipodi:namedview
     id="namedview16"
     pagecolor="#505050"
     bordercolor="#ffffff"
     borderopacity="1"
     inkscape:pageshadow="0"
     inkscape:pageopacity="0"
     inkscape:pagecheckerboard="1"
     showgrid="false"
     inkscape:zoom="5.9027778"
     inkscape:cx="72.084706"
     inkscape:cy="71.915294"
     inkscape:window-width="1920"
     inkscape:window-height="1009"
     inkscape:window-x="1912"
     inkscape:window-y="-8"
     inkscape:window-maximized="1"
     inkscape:current-layer="svg14" />
  <path
     id="path2"
     style="fill:#ffffff;stroke-width:0.76605"
     d="m 12.033914,4.3394958 c -3.0653739,0 -5.3962668,2.4249839 -5.3962668,5.4805523 0,1.9725799 1.1694084,3.1511989 2.4405389,4.7356979 0.3682017,0.458985 0.3852175,1.232999 0.4161908,2.040557 H 8.9357985 c -0.4230744,0 -0.7660505,0.342961 -0.7660505,0.76605 v 1.532101 c 0,0.42309 0.3429761,0.766051 0.7660505,0.766051 h 3.0981155 3.030288 c 0.42309,0 0.76605,-0.342961 0.76605,-0.766051 v -1.532101 c 0,-0.423089 -0.34296,-0.76605 -0.76605,-0.76605 h -0.464568 c 0.04332,-0.821499 0.07465,-1.613933 0.469306,-2.091427 1.25977,-1.524135 2.293413,-2.781514 2.293413,-4.7204872 0,-3.0555684 -2.263012,-5.444893 -5.328439,-5.444893 z M 12,5.8715967 a 0.38302526,0.38302526 0 0 1 0.383025,0.3830252 v 0.8049515 c 0.248469,0.050961 0.479723,0.1501924 0.683511,0.2877677 l 0.567306,-0.578029 a 0.38302526,0.38302526 0 0 1 0.269315,-0.1152069 0.38302526,0.38302526 0 0 1 0.272307,0.1092221 0.38302526,0.38302526 0 0 1 0.0045,0.5416215 L 13.60393,7.8927031 c 0.129551,0.1980475 0.223283,0.4210415 0.272307,0.6600702 h 0.804952 a 0.38302526,0.38302526 0 0 1 0.383025,0.3830252 0.38302526,0.38302526 0 0 1 -0.383025,0.3830252 h -0.804952 c -0.04998,0.2436771 -0.146559,0.4706422 -0.280037,0.671541 l 0.673536,0.6735363 a 0.38302526,0.38302526 0 0 1 0,0.541621 0.38302526,0.38302526 0 0 1 -0.541622,0 l -0.673536,-0.673536 c -0.200898,0.133481 -0.42786,0.230059 -0.671541,0.280038 v 0.804951 A 0.38302526,0.38302526 0 0 1 12,12 0.38302526,0.38302526 0 0 1 11.616975,11.616975 v -0.804951 c -0.243673,-0.04998 -0.470642,-0.146559 -0.671541,-0.280038 l -0.589749,0.589749 a 0.38302526,0.38302526 0 0 1 -0.5416217,0 0.38302526,0.38302526 0 0 1 0,-0.541621 L 10.403812,9.9903647 C 10.270329,9.7894663 10.173755,9.5625038 10.123775,9.3188237 H 9.3188237 A 0.38302526,0.38302526 0 0 1 8.9357985,8.9357985 0.38302526,0.38302526 0 0 1 9.3188237,8.5527733 h 0.8049513 c 0.04901,-0.2389617 0.142811,-0.4618169 0.272307,-0.6598209 L 9.7123222,7.1957269 a 0.38302526,0.38302526 0 0 1 0.00598,-0.5416217 0.38302526,0.38302526 0 0 1 0.5416218,0.00598 l 0.673785,0.6870017 C 11.137433,7.2096181 11.36863,7.110509 11.616975,7.0595734 V 6.2546219 A 0.38302526,0.38302526 0 0 1 12,5.8715967 Z m 0,1.9151261 c -0.639087,0 -1.149075,0.5099381 -1.149075,1.1490757 0,0.6391376 0.509988,1.1490755 1.149075,1.1490755 0.639183,0 1.149076,-0.509915 1.149076,-1.1490755 0,-0.6391606 -0.509893,-1.1490757 -1.149076,-1.1490757 z m 0,6.1284032 a 0.38302523,0.38302523 0 0 1 0.383025,0.383026 v 2.298151 h -0.76605 V 14.298152 A 0.38302523,0.38302523 0 0 1 12,13.915126 Z" />
</svg>
