<?xml version="1.0" encoding="UTF-8" standalone="no"?>
<!-- Generator: Adobe Illustrator 16.0.4, SVG Export Plug-In . SVG Version: 6.00 Build 0)  -->

<svg
   version="1.1"
   id="Layer_1"
   x="0px"
   y="0px"
   width="595.28px"
   height="595.28px"
   viewBox="0 0 595.28 595.28"
   style="enable-background:new 0 0 595.28 595.28;"
   xml:space="preserve"
   sodipodi:docname="gamedesign.svg"
   inkscape:version="1.1.1 (3bf5ae0d25, 2021-09-20)"
   xmlns:inkscape="http://www.inkscape.org/namespaces/inkscape"
   xmlns:sodipodi="http://sodipodi.sourceforge.net/DTD/sodipodi-0.dtd"
   xmlns="http://www.w3.org/2000/svg"
   xmlns:svg="http://www.w3.org/2000/svg"><defs
   id="defs39">
	
	

		
	</defs><sodipodi:namedview
   id="namedview37"
   pagecolor="#505050"
   bordercolor="#ffffff"
   borderopacity="1"
   inkscape:pageshadow="0"
   inkscape:pageopacity="0"
   inkscape:pagecheckerboard="1"
   showgrid="false"
   inkscape:zoom="1.0096774"
   inkscape:cx="232.25241"
   inkscape:cy="292.66775"
   inkscape:window-width="1920"
   inkscape:window-height="1009"
   inkscape:window-x="1912"
   inkscape:window-y="-8"
   inkscape:window-maximized="1"
   inkscape:current-layer="Layer_1" />
<g
   id="g30"
   style="fill:#ffffff"
   transform="matrix(1.3745175,0,0,1.3745175,-111.47106,-111.47162)">
			<path
   style="fill:#ffffff"
   d="m 492.243,345.884 c -1.561,-15.357 -3.563,-30.678 -5.695,-45.969 -2.074,-14.881 -3.837,-29.749 -3.644,-44.82 0.061,-4.662 -0.466,-9.436 -1.48,-13.989 -4.365,-19.574 -15.49,-34.263 -32.883,-44.203 -1.012,-0.577 -1.457,-1.212 -1.499,-2.368 -0.091,-2.477 -0.22,-4.959 -0.51,-7.419 -1.315,-11.149 -7.794,-18.51 -18.766,-20.353 -10.671,-1.792 -21.453,-1.522 -32.036,0.826 -8.725,1.936 -14.184,7.511 -15.635,16.437 -0.721,4.435 -0.912,8.968 -1.114,13.467 -0.081,1.807 -5.763,7.215 -7.674,8.691 -0.646,0.498 -1.533,0.966 -2.312,0.966 -47.056,0.045 -94.113,0.046 -141.169,-0.002 -0.837,-0.001 -1.788,-0.5 -2.487,-1.029 -2.687,-2.031 -5.334,-4.121 -7.897,-6.304 -0.614,-0.523 -1.131,-1.464 -1.208,-2.259 -0.367,-3.793 -0.376,-7.627 -0.865,-11.401 -1.27,-9.798 -6.838,-16.244 -16.397,-18.556 -10.068,-2.436 -20.373,-2.462 -30.542,-1.052 -10.132,1.405 -16.934,7.301 -19.211,17.539 -0.822,3.695 -0.838,7.564 -1.346,11.337 -0.1,0.748 -0.594,1.703 -1.205,2.083 -20.556,12.798 -31.732,31.171 -32.965,55.424 -0.21,4.124 0.424,8.32 -0.075,12.392 -1.268,10.337 -2.918,20.628 -4.488,30.927 -2.662,17.468 -5.292,34.938 -6.494,52.586 -0.177,2.593 -0.464,5.178 -0.7,7.766 0,7.005 0,14.01 0,21.014 0.126,0.741 0.319,1.479 0.369,2.225 0.563,8.332 1.768,16.547 4.562,24.458 2.949,8.352 7.354,15.671 15.114,20.451 12.468,7.679 30.563,6.249 42.623,-3.261 7.635,-6.021 13.169,-13.759 18.032,-22.027 8.099,-13.775 14.431,-28.422 20.983,-42.958 1.977,-4.383 3.966,-8.761 6.019,-13.292 0.575,0.516 0.988,0.884 1.4,1.254 9.579,8.592 20.746,12.481 33.541,10.671 16.11,-2.279 27.112,-11.332 33.293,-26.284 0.617,-1.491 1.341,-1.934 2.896,-1.926 12.226,0.063 24.453,0.062 36.678,0.001 1.557,-0.008 2.308,0.406 2.891,1.94 7.93,20.847 30.57,31.64 51.692,24.684 5.312,-1.75 10.051,-4.559 14.347,-8.25 0.326,0.681 0.608,1.246 0.867,1.822 3.977,8.795 7.867,17.63 11.941,26.379 5.771,12.391 11.592,24.771 19.77,35.829 7.899,10.681 17.48,18.745 31.422,20.073 13.273,1.265 25.977,-3.06 33.613,-15.956 5.203,-8.784 7.268,-18.506 8.358,-28.479 1.426,-13.026 1.206,-26.095 -0.114,-39.085 z m -384.585,6.679 c 0.043,-0.825 0.097,-1.649 0.171,-2.471 -0.074,0.823 -0.128,1.646 -0.171,2.471 z m 60.656,-130.632 c -0.021,-1.829 0.884,-2.518 2.565,-2.516 3.114,0.001 6.228,0 9.341,0 2.987,-0.002 5.974,-0.017 8.961,0.002 2.355,0.015 2.98,0.62 2.988,2.892 0.014,4.194 0.04,8.389 -0.032,12.582 -0.014,0.831 -0.208,1.87 -0.727,2.444 -2.851,3.154 -5.75,6.275 -8.794,9.24 -1.835,1.787 -2.998,1.769 -4.788,0.013 -3.035,-2.978 -5.942,-6.09 -8.82,-9.222 -0.452,-0.491 -0.646,-1.381 -0.655,-2.091 -0.054,-4.447 0.013,-8.897 -0.039,-13.344 z m -4.734,44.142 c -4.392,0.063 -8.786,0.049 -13.179,0.025 -1.924,-0.011 -2.59,-0.691 -2.613,-2.688 -0.036,-3.12 -0.009,-6.24 -0.009,-9.36 -0.005,-3.056 -0.03,-6.113 0.003,-9.169 0.022,-2.02 0.624,-2.622 2.626,-2.633 4.393,-0.024 8.787,-0.043 13.179,0.028 0.761,0.012 1.699,0.274 2.241,0.767 3.013,2.737 6.001,5.511 8.855,8.412 2.054,2.087 2.088,3.172 0.091,5.221 -2.93,3.004 -6.019,5.855 -9.113,8.692 -0.498,0.457 -1.374,0.695 -2.081,0.705 z m 28.585,17.715 c -0.011,2.188 -0.493,2.652 -2.735,2.667 -3.118,0.021 -6.235,0.005 -9.353,0.005 -3.117,-10e-4 -6.236,-0.028 -9.353,0.011 -1.675,0.021 -2.434,-0.687 -2.415,-2.399 0.048,-4.453 -0.017,-8.908 0.058,-13.36 0.013,-0.753 0.3,-1.676 0.793,-2.218 2.739,-3.008 5.51,-5.993 8.409,-8.845 2.028,-1.996 3.264,-2.011 5.243,-0.062 2.943,2.897 5.771,5.919 8.541,8.984 0.525,0.582 0.769,1.605 0.784,2.431 0.076,4.26 0.049,8.523 0.028,12.786 z m 5.001,-17.716 c -0.832,-0.014 -1.87,-0.225 -2.447,-0.749 -3.104,-2.822 -6.159,-5.706 -9.096,-8.702 -1.892,-1.931 -1.88,-3.129 0.05,-5.082 2.904,-2.937 5.942,-5.743 8.994,-8.528 0.5,-0.457 1.354,-0.725 2.05,-0.735 4.453,-0.065 8.908,0.002 13.362,-0.052 1.812,-0.022 2.537,0.834 2.531,2.543 -0.011,3.118 -0.003,6.235 -0.003,9.353 -0.005,0 -0.01,0 -0.016,0 0,3.054 0.031,6.109 -0.01,9.163 -0.032,2.348 -0.52,2.812 -2.819,2.82 -4.198,0.013 -8.398,0.043 -12.596,-0.031 z m 41.96,74.24 c -14.171,0.247 -26.396,-11.999 -26.135,-26.618 0.252,-14.099 11.976,-25.834 26.247,-25.837 14.434,-0.003 26.344,11.976 26.278,26.43 -0.066,14.375 -11.901,26.048 -26.39,26.025 z m 31.481,-81.382 c -0.007,1.5 -0.812,2.195 -2.276,2.195 -2.228,0 -4.455,0 -6.682,0 -2.163,0 -4.326,0.008 -6.49,-0.002 -1.549,-0.007 -2.355,-0.784 -2.356,-2.351 -0.002,-2.354 0.022,-4.708 -0.009,-7.062 -0.02,-1.489 0.715,-2.343 2.143,-2.362 4.516,-0.06 9.034,-0.055 13.55,-0.012 1.319,0.013 2.14,0.714 2.135,2.151 -0.009,2.481 -0.003,4.962 -0.015,7.443 z m 34.373,52.709 c -2.027,-0.062 -4.059,-0.017 -6.088,-0.017 -1.965,10e-4 -3.934,-0.045 -5.897,0.018 -1.203,0.039 -1.788,-0.421 -1.778,-1.632 0.017,-1.838 0.041,-3.678 0.027,-5.516 -0.008,-1.147 0.56,-1.545 1.654,-1.537 4.059,0.027 8.117,0.031 12.176,0.001 1.23,-0.009 1.717,0.558 1.705,1.728 -0.016,1.713 -0.018,3.425 0.012,5.137 0.021,1.256 -0.479,1.859 -1.811,1.818 z m 20.194,-49.805 c -1.558,0.311 -2.408,-0.432 -2.459,-2.06 -0.05,-1.587 -0.012,-3.178 -0.012,-4.768 0.003,-1.589 -0.025,-3.179 0.012,-4.768 0.034,-1.51 0.848,-2.268 2.342,-1.935 5.439,1.213 10.873,2.466 16.297,3.753 1.754,0.416 2.492,1.769 2.396,3.434 -0.091,1.541 -0.759,2.724 -2.558,3.071 -5.35,1.036 -10.674,2.205 -16.018,3.273 z m 33.868,77.831 c -13.966,0.042 -25.538,-11.48 -25.558,-25.446 -0.018,-13.973 11.482,-25.468 25.512,-25.502 14.054,-0.034 25.441,11.354 25.449,25.45 0.006,14.112 -11.295,25.455 -25.403,25.498 z m 24.995,-70.121 c -7.932,-0.004 -14.359,-6.517 -14.332,-14.522 0.027,-7.857 6.493,-14.257 14.396,-14.249 7.856,0.008 14.35,6.473 14.377,14.312 0.028,7.914 -6.513,14.463 -14.441,14.459 z m 32.449,32.396 c -7.896,0.091 -14.418,-6.435 -14.427,-14.435 -0.009,-7.957 6.281,-14.276 14.254,-14.319 8.01,-0.044 14.505,6.391 14.477,14.338 -0.029,7.864 -6.44,14.326 -14.304,14.416 z m -0.06,-64.804 c -8.08,-0.005 -14.367,-6.338 -14.318,-14.421 0.047,-7.914 6.459,-14.313 14.332,-14.303 7.9,0.01 14.525,6.676 14.412,14.503 -0.114,7.926 -6.504,14.226 -14.426,14.221 z m 32.223,32.424 c -7.815,-0.025 -14.326,-6.571 -14.319,-14.394 0.006,-7.899 6.597,-14.421 14.533,-14.383 7.873,0.039 14.227,6.474 14.223,14.405 -0.003,8.026 -6.403,14.397 -14.437,14.372 z"
   id="path2" />
			
			
			
			
			
			
			
			
			
			
			<path
   style="fill:#ffffff"
   d="m 298.523,313.411 c -2.355,10e-4 -4.711,0.016 -7.065,-0.004 -2.301,-0.019 -2.881,-0.543 -2.929,-2.76 -0.042,-2.035 0.036,-4.073 0.01,-6.109 -0.021,-1.749 0.818,-2.591 2.542,-2.592 5.092,-0.001 10.185,-0.016 15.276,0.011 1.592,0.008 2.459,0.761 2.406,2.485 -0.066,2.098 0.004,4.2 -0.018,6.301 -0.02,2.038 -0.576,2.63 -2.585,2.659 -2.545,0.038 -5.092,0.009 -7.637,0.009 z"
   id="path24" />
			
			
		</g>

</svg>
