<?xml version="1.0" encoding="UTF-8" standalone="no"?>
<!-- Generator: Adobe Illustrator 16.0.4, SVG Export Plug-In . SVG Version: 6.00 Build 0)  -->

<svg
   version="1.1"
   id="Layer_1"
   x="0px"
   y="0px"
   width="595.28px"
   height="595.28px"
   viewBox="0 0 595.28 595.28"
   style="enable-background:new 0 0 595.28 595.28;"
   xml:space="preserve"
   sodipodi:docname="resume.svg"
   inkscape:version="1.1.1 (3bf5ae0d25, 2021-09-20)"
   xmlns:inkscape="http://www.inkscape.org/namespaces/inkscape"
   xmlns:sodipodi="http://sodipodi.sourceforge.net/DTD/sodipodi-0.dtd"
   xmlns="http://www.w3.org/2000/svg"
   xmlns:svg="http://www.w3.org/2000/svg"><defs
   id="defs39">
	
	

		
	</defs><sodipodi:namedview
   id="namedview37"
   pagecolor="#505050"
   bordercolor="#ffffff"
   borderopacity="1"
   inkscape:pageshadow="0"
   inkscape:pageopacity="0"
   inkscape:pagecheckerboard="1"
   showgrid="false"
   inkscape:zoom="0.7139497"
   inkscape:cx="432.10327"
   inkscape:cy="210.79916"
   inkscape:window-width="1920"
   inkscape:window-height="1009"
   inkscape:window-x="1912"
   inkscape:window-y="-8"
   inkscape:window-maximized="1"
   inkscape:current-layer="Layer_1"
   inkscape:snap-global="false" />


<path
   id="rect2006"
   style="fill:#ffffff;stroke:none;stroke-width:6.71826;stroke-linejoin:round;stroke-opacity:0.0221239"
   d="M 140.95492,58.651727 V 449.46565 h 87.30081 v 87.16192 H 454.32437 V 58.651727 Z m 18.90719,21.988371 H 320.06806 V 210.91777 H 159.86211 Z m 181.33159,0 h 94.18703 V 99.125467 H 341.1937 Z m 0,37.658142 h 94.18703 v 18.48537 H 341.1937 Z m 0,37.65815 h 94.18703 v 18.48537 H 341.1937 Z m 0,37.65814 h 94.18703 V 212.0999 H 341.1937 Z m -182.37138,39.2135 h 276.55841 v 18.48536 H 158.82232 Z m 0,40.92506 h 276.55841 v 18.48537 H 158.82232 Z m 0,40.92333 h 276.55841 v 18.48537 H 158.82232 Z m 0,40.92508 h 276.55841 v 18.48537 H 158.82232 Z m 0,40.92506 h 156.43042 v 18.48537 H 158.82232 Z m -17.8674,64.382 77.00357,74.86149 v -74.86149 z" /></svg>
