<?xml version="1.0" encoding="UTF-8" standalone="no"?>
<svg
   width="144"
   height="144"
   viewBox="0 0 24 24"
   fill="none"
   data-reactroot=""
   version="1.1"
   id="svg8"
   sodipodi:docname="webdev.svg"
   inkscape:version="1.1.1 (3bf5ae0d25, 2021-09-20)"
   xmlns:inkscape="http://www.inkscape.org/namespaces/inkscape"
   xmlns:sodipodi="http://sodipodi.sourceforge.net/DTD/sodipodi-0.dtd"
   xmlns="http://www.w3.org/2000/svg"
   xmlns:svg="http://www.w3.org/2000/svg">
  <defs
     id="defs12" />
  <sodipodi:namedview
     id="namedview10"
     pagecolor="#505050"
     bordercolor="#ffffff"
     borderopacity="1"
     inkscape:pageshadow="0"
     inkscape:pageopacity="0"
     inkscape:pagecheckerboard="1"
     showgrid="false"
     inkscape:zoom="5.9027778"
     inkscape:cx="71.915294"
     inkscape:cy="72.084706"
     inkscape:window-width="1920"
     inkscape:window-height="1009"
     inkscape:window-x="1912"
     inkscape:window-y="-8"
     inkscape:window-maximized="1"
     inkscape:current-layer="svg8" />
  <g
     id="g850"
     transform="matrix(0.82288751,0,0,0.82288751,2.1253477,2.1253495)">
    <path
       fill="#221b38"
       d="m 16.7929,6.79289 c 0.3905,-0.39052 1.0237,-0.39052 1.4142,0 l 4.5,4.50001 c 0.3905,0.3905 0.3905,1.0237 0,1.4142 l -4.5,4.5 c -0.3905,0.3905 -1.0237,0.3905 -1.4142,0 -0.3905,-0.3905 -0.3905,-1.0237 0,-1.4142 L 20.5858,12 16.7929,8.20711 c -0.3905,-0.39053 -0.3905,-1.02369 0,-1.41422 z"
       clip-rule="evenodd"
       fill-rule="evenodd"
       undefined="1"
       id="path2"
       style="fill:#ffffff" />
    <path
       fill="#221b38"
       d="m 7.20711,6.79289 c 0.39052,0.39053 0.39052,1.02369 0,1.41422 L 3.41421,12 l 3.7929,3.7929 c 0.39052,0.3905 0.39052,1.0237 0,1.4142 -0.39053,0.3905 -1.02369,0.3905 -1.41422,0 l -4.5,-4.5 c -0.390521,-0.3905 -0.390521,-1.0237 0,-1.4142 l 4.5,-4.50001 c 0.39053,-0.39052 1.02369,-0.39052 1.41422,0 z"
       clip-rule="evenodd"
       fill-rule="evenodd"
       undefined="1"
       id="path4"
       style="fill:#ffffff" />
    <path
       fill="#221b38"
       d="m 15.4282,3.06638 c 0.5157,0.19787 0.7732,0.77627 0.5754,1.29189 L 9.86357,20.3583 C 9.6657,20.8739 9.0873,21.1315 8.57168,20.9336 8.05606,20.7357 7.79847,20.1573 7.99634,19.6417 L 14.1363,3.64172 C 14.3342,3.1261 14.9126,2.86851 15.4282,3.06638 Z"
       clip-rule="evenodd"
       fill-rule="evenodd"
       undefined="1"
       id="path6"
       style="fill:#ffffff" />
  </g>
</svg>
